<svg width="25" height="25" viewBox="0 0 25 25" fill="none" xmlns="http://www.w3.org/2000/svg">
<g clip-path="url(#clip0_35_1026)">
<path d="M16.3837 8.50746C17.9275 9.61455 19.8179 10.266 21.8598 10.266V7.16192C20.72 6.91828 19.711 6.32054 18.9524 5.48913C17.6538 4.67593 16.7182 3.33434 16.4439 1.7641H13.5813V17.5147C13.5749 19.3509 12.09 20.8377 10.2589 20.8377C9.17983 20.8377 8.2212 20.3216 7.61408 19.5219C6.52995 18.9728 5.78649 17.8454 5.78649 16.5436C5.78649 14.7023 7.27382 13.2094 9.10887 13.2094C9.46046 13.2094 9.79934 13.2643 10.1172 13.3655V10.2275C6.17647 10.3092 3.00716 13.5406 3.00716 17.5148C3.00716 19.4987 3.79639 21.2972 5.07733 22.6113C6.23291 23.39 7.62401 23.8441 9.12069 23.8441C13.132 23.8441 16.3838 20.5807 16.3838 16.555V8.50746H16.3837Z" fill="white"/>
<path d="M21.8598 7.16096V6.32165C20.832 6.32321 19.8244 6.03435 18.9524 5.48809C19.7243 6.33622 20.7408 6.92103 21.8598 7.16096ZM16.444 1.76314C16.4178 1.61307 16.3977 1.46201 16.3837 1.31038V0.803162H12.4313V16.554C12.425 18.3899 10.9402 19.8767 9.1089 19.8767C8.57126 19.8767 8.06364 19.7486 7.61411 19.5211C8.22123 20.3206 9.17985 20.8367 10.2589 20.8367C12.0899 20.8367 13.575 19.3501 13.5814 17.5139V1.76314H16.444ZM10.1174 10.2266V9.33305C9.78714 9.28775 9.45417 9.26502 9.12079 9.26518C5.10918 9.2651 1.85726 12.5285 1.85726 16.554C1.85726 19.0777 3.13532 21.3018 5.07743 22.6101C3.7965 21.2962 3.00727 19.4976 3.00727 17.5138C3.00727 13.5397 6.1765 10.3083 10.1174 10.2266Z" fill="white"/>
</g>
<defs>
<clipPath id="clip0_35_1026">
<rect x="0.341637" y="0.803162" width="24" height="24" rx="6" fill="white"/>
</clipPath>
</defs>
</svg>
