<svg width="25" height="25" viewBox="0 0 25 25" fill="none" xmlns="http://www.w3.org/2000/svg">
<path d="M24.2744 7.8552C24.2168 6.57738 24.0104 5.70308 23.7175 4.93927C23.4103 4.15144 23.0022 3.4789 22.3348 2.81597C21.6675 2.15304 21.0002 1.73511 20.2128 1.43247C19.4495 1.13463 18.5757 0.932865 17.2986 0.875219C16.0168 0.817573 15.6087 0.803162 12.3536 0.803162C9.0938 0.803162 8.68571 0.817573 7.40866 0.875219C6.1316 0.932865 5.25783 1.13943 4.49448 1.43247C3.70232 1.73991 3.03018 2.14824 2.36765 2.81597C1.70512 3.48371 1.28743 4.15144 0.984974 4.93927C0.692116 5.70308 0.485675 6.57738 0.428063 7.8552C0.370451 9.13783 0.356049 9.54616 0.356049 12.8032C0.356049 16.065 0.370451 16.4733 0.428063 17.7511C0.485675 19.0289 0.692116 19.9032 0.984974 20.6671C1.29224 21.4549 1.70032 22.1274 2.36765 22.7904C3.03018 23.4581 3.70232 23.8712 4.48968 24.1739C5.25303 24.4717 6.1268 24.6735 7.40386 24.7311C8.68571 24.7888 9.0938 24.8032 12.3488 24.8032C15.6087 24.8032 16.0168 24.7888 17.2938 24.7311C18.5709 24.6735 19.4447 24.4669 20.208 24.1739C20.9954 23.8664 21.6675 23.4581 22.33 22.7904C22.9926 22.1226 23.4103 21.4549 23.7127 20.6671C24.0104 19.9032 24.212 19.0289 24.2696 17.7511C24.3272 16.4685 24.3416 16.0602 24.3416 12.8032C24.3416 9.54616 24.332 9.13303 24.2744 7.8552ZM22.1188 17.655C22.066 18.8272 21.8692 19.4661 21.7059 19.884C21.4899 20.4413 21.2258 20.8448 20.8033 21.2675C20.3809 21.6903 19.9824 21.9449 19.4207 22.1707C18.9982 22.334 18.3596 22.5309 17.193 22.5838C15.9304 22.6414 15.5511 22.6558 12.344 22.6558C9.137 22.6558 8.75773 22.6414 7.49508 22.5838C6.32364 22.5309 5.68511 22.334 5.26743 22.1707C4.71052 21.9545 4.30724 21.6903 3.88475 21.2675C3.46227 20.8448 3.20782 20.4461 2.98217 19.884C2.81894 19.4613 2.6221 18.8224 2.56929 17.655C2.51168 16.3916 2.49728 16.0121 2.49728 12.8032C2.49728 9.5942 2.51168 9.21469 2.56929 7.95128C2.6221 6.77914 2.81894 6.14023 2.98217 5.7223C3.19822 5.16505 3.46227 4.76153 3.88475 4.33879C4.30724 3.91605 4.70572 3.66145 5.26743 3.43567C5.68992 3.27234 6.32844 3.07538 7.49508 3.02254C8.75773 2.96489 9.137 2.95048 12.344 2.95048C15.5511 2.95048 15.9304 2.96489 17.193 3.02254C18.3645 3.07538 19.003 3.27234 19.4207 3.43567C19.9776 3.65184 20.3809 3.91605 20.8033 4.33879C21.2258 4.76153 21.4803 5.16025 21.7059 5.7223C21.8692 6.14504 22.066 6.78395 22.1188 7.95128C22.1764 9.21469 22.1908 9.5942 22.1908 12.8032C22.1908 16.0121 22.1716 16.3916 22.1188 17.655Z" fill="white"/>
<path d="M12.3441 6.63501C8.93541 6.63501 6.17966 9.39722 6.17966 12.8031C6.17966 16.2139 8.94021 18.9713 12.3441 18.9713C15.748 18.9713 18.5085 16.2043 18.5085 12.8031C18.5085 9.39242 15.7528 6.63501 12.3441 6.63501ZM12.3441 16.8047C10.1356 16.8047 8.34489 15.0129 8.34489 12.8031C8.34489 10.5934 10.1356 8.80154 12.3441 8.80154C14.5525 8.80154 16.3433 10.5934 16.3433 12.8031C16.3433 15.0129 14.5525 16.8047 12.3441 16.8047Z" fill="white"/>
<path d="M18.7485 7.83781C19.5439 7.83781 20.1888 7.19259 20.1888 6.39666C20.1888 5.60073 19.5439 4.95551 18.7485 4.95551C17.953 4.95551 17.3082 5.60073 17.3082 6.39666C17.3082 7.19259 17.953 7.83781 18.7485 7.83781Z" fill="white"/>
<path d="M0.341644 12.8032C0.341644 16.065 0.356047 16.4733 0.413659 17.7511C0.47127 19.0289 0.677712 19.9032 0.97057 20.6671C1.27783 21.4549 1.68591 22.1274 2.35325 22.7904C3.01578 23.4533 3.68791 23.8712 4.47527 24.1739C5.23862 24.4717 6.1124 24.6735 7.38945 24.7311C8.67131 24.7888 9.07939 24.8032 12.3344 24.8032C15.5943 24.8032 16.0024 24.7888 17.2794 24.7311C18.5565 24.6735 19.4303 24.4669 20.1936 24.1739C20.981 23.8664 21.6531 23.4581 22.3156 22.7904C22.9782 22.1274 23.3959 21.4549 23.6983 20.6671C23.996 19.9032 24.1976 19.0289 24.2552 17.7511C24.3128 16.4685 24.3272 16.0602 24.3272 12.8032C24.3272 9.54135 24.3128 9.13303 24.2552 7.8552C24.1976 6.57738 23.9912 5.70308 23.6983 4.93927C23.3911 4.15144 22.983 3.4789 22.3156 2.81597C21.6579 2.14824 20.9858 1.73511 20.1984 1.43247C19.4351 1.13463 18.5613 0.932865 17.2842 0.875219C16.0024 0.817573 15.5943 0.803162 12.3392 0.803162C9.07939 0.803162 8.67131 0.817573 7.39425 0.875219C6.1172 0.932865 5.24342 1.13943 4.48007 1.43247C3.69271 1.73991 3.02058 2.14824 2.35805 2.81597C1.69552 3.48371 1.27783 4.15144 0.975371 4.93927C0.677711 5.70308 0.47127 6.57738 0.413659 7.8552C0.356047 9.13303 0.341644 9.54135 0.341644 12.8032ZM2.50688 12.8032C2.50688 9.599 2.52128 9.21469 2.57889 7.95128C2.6317 6.77914 2.82854 6.14023 2.99177 5.7223C3.20782 5.16505 3.47187 4.76153 3.89435 4.33879C4.31684 3.91605 4.71532 3.66145 5.27703 3.43567C5.69952 3.27234 6.33804 3.07538 7.50468 3.02254C8.76733 2.96489 9.1466 2.95048 12.3536 2.95048C15.5607 2.95048 15.94 2.96489 17.2026 3.02254C18.3741 3.07538 19.0126 3.27234 19.4303 3.43567C19.9872 3.65184 20.3905 3.91605 20.8129 4.33879C21.2354 4.76153 21.4899 5.16025 21.7155 5.7223C21.8788 6.14504 22.0756 6.78395 22.1284 7.95128C22.186 9.21469 22.2004 9.5942 22.2004 12.8032C22.2004 16.0121 22.186 16.3916 22.1284 17.655C22.0756 18.8272 21.8788 19.4661 21.7155 19.884C21.4995 20.4413 21.2354 20.8448 20.8129 21.2675C20.3905 21.6903 19.992 21.9449 19.4303 22.1707C19.0078 22.334 18.3692 22.5309 17.2026 22.5838C15.94 22.6414 15.5607 22.6558 12.3536 22.6558C9.1466 22.6558 8.76733 22.6414 7.50468 22.5838C6.33324 22.5309 5.69472 22.334 5.27703 22.1707C4.72012 21.9545 4.31684 21.6903 3.89435 21.2675C3.47187 20.8448 3.21742 20.4461 2.99177 19.884C2.82854 19.4613 2.6317 18.8224 2.57889 17.655C2.51648 16.3916 2.50688 16.0073 2.50688 12.8032Z" fill="white"/>
</svg>
