<svg width="25" height="25" viewBox="0 0 25 25" fill="none" xmlns="http://www.w3.org/2000/svg">
<path d="M12.3367 0.803162C5.7024 0.803162 0.341637 6.17379 0.341637 12.7982C0.341637 17.8825 3.50083 22.2264 7.9632 23.9739C7.8546 23.0261 7.76575 21.565 8.00268 20.5284C8.21988 19.5905 9.40456 14.5654 9.40456 14.5654C9.40456 14.5654 9.04917 13.8447 9.04917 12.7884C9.04917 11.1199 10.0167 9.87598 11.2211 9.87598C12.2478 9.87598 12.7415 10.646 12.7415 11.5642C12.7415 12.5909 12.0899 14.131 11.7443 15.5625C11.4581 16.7571 12.3466 17.7345 13.5214 17.7345C15.6539 17.7345 17.2927 15.4835 17.2927 12.2454C17.2927 9.37248 15.2293 7.36836 12.2775 7.36836C8.86159 7.36836 6.85747 9.92532 6.85747 12.5712C6.85747 13.5979 7.25236 14.7036 7.746 15.3058C7.84473 15.4243 7.8546 15.5329 7.82498 15.6514C7.73613 16.0265 7.5288 16.8459 7.48932 17.0138C7.43995 17.231 7.3116 17.2803 7.08453 17.1717C5.60366 16.4609 4.67565 14.2692 4.67565 12.5119C4.67565 8.73077 7.4202 5.25564 12.6033 5.25564C16.7596 5.25564 19.9978 8.21739 19.9978 12.1861C19.9978 16.3227 17.3914 19.6497 13.7781 19.6497C12.5638 19.6497 11.4185 19.0179 11.0335 18.2676C11.0335 18.2676 10.4313 20.558 10.2832 21.1207C10.0167 22.1672 9.2861 23.4704 8.79247 24.2701C9.91795 24.6156 11.1026 24.8032 12.3466 24.8032C18.971 24.8032 24.3416 19.4325 24.3416 12.8081C24.3318 6.17379 18.9611 0.803162 12.3367 0.803162Z" fill="white"/>
</svg>
